<svg width="20" height="20" viewBox="0 0 20 20" fill="none" xmlns="http://www.w3.org/2000/svg">
<g id="Group 1">
<path id="Vector" d="M10.1906 4.96606C13.3572 4.96606 16.1812 6.74569 17.5598 9.56136C17.0668 10.5807 16.3734 11.458 15.5462 12.1681L16.7243 13.3462C17.8856 12.3185 18.8047 11.0319 19.3812 9.56136C17.9358 5.89347 14.3681 3.29504 10.1906 3.29504C9.1295 3.29504 8.11018 3.46214 7.14935 3.77128L8.52794 5.14987C9.07102 5.04125 9.62245 4.96606 10.1906 4.96606ZM9.29661 5.91854L11.0261 7.64804C11.5023 7.85692 11.8867 8.24125 12.0956 8.71749L13.8251 10.447C13.8919 10.1629 13.942 9.86214 13.942 9.553C13.9504 7.48094 12.2627 5.80157 10.1906 5.80157C9.88146 5.80157 9.58903 5.84334 9.29661 5.91854ZM1.84386 3.18642L4.08303 5.42559C2.72115 6.49504 1.64334 7.91541 1 9.56136C2.44543 13.2292 6.01305 15.8277 10.1906 15.8277C11.4606 15.8277 12.6804 15.5854 13.8 15.1426L16.6574 18L17.8355 16.8219L3.02193 2L1.84386 3.18642ZM8.11018 9.45274L10.2909 11.6334C10.2574 11.6418 10.224 11.6501 10.1906 11.6501C9.0376 11.6501 8.10183 10.7144 8.10183 9.56136C8.10183 9.51958 8.11018 9.49452 8.11018 9.45274ZM5.26945 6.61201L6.73159 8.07415C6.53943 8.53368 6.43081 9.03499 6.43081 9.56136C6.43081 11.6334 8.11854 13.3211 10.1906 13.3211C10.717 13.3211 11.2183 13.2125 11.6695 13.0204L12.4883 13.8392C11.753 14.0397 10.9843 14.1567 10.1906 14.1567C7.02402 14.1567 4.2 12.377 2.82141 9.56136C3.40627 8.36658 4.25849 7.38068 5.26945 6.61201Z" fill="#828282"/>
</g>
</svg>
