<svg width="20" height="20" viewBox="0 0 26 26" fill="none" xmlns="http://www.w3.org/2000/svg">
  <path d="M13.0377 5.91693C4.17901 5.91693 1.877 12.5044 1.78451 12.7819C1.71246 12.9952 1.71246 13.2263 1.78451 13.4396C1.877 13.7171 4.17901 20.3045 13.0377 20.3045C21.8963 20.3045 24.1983 13.7171 24.3422 13.4396C24.4142 13.2263 24.4142 12.9952 24.3422 12.7819C24.1983 12.5044 21.8963 5.91693 13.0377 5.91693ZM13.0377 18.2491C6.67628 18.2491 4.41538 14.3131 3.87071 13.1107C4.4051 11.9392 6.70712 7.9723 13.0377 7.9723C19.3682 7.9723 21.6702 11.9186 22.2046 13.1107C21.6702 14.2823 19.3682 18.2491 13.0377 18.2491Z" fill="#828282"/>
  <path d="M13.0365 9C12.2235 9 11.4287 9.24109 10.7527 9.69278C10.0767 10.1445 9.54983 10.7865 9.23869 11.5376C8.92756 12.2888 8.84616 13.1153 9.00477 13.9127C9.16338 14.7101 9.55489 15.4426 10.1298 16.0175C10.7047 16.5924 11.4372 16.9839 12.2346 17.1425C13.032 17.3011 13.8585 17.2197 14.6096 16.9086C15.3608 16.5974 16.0028 16.0706 16.4545 15.3945C16.9062 14.7185 17.1473 13.9238 17.1473 13.1107C17.1473 12.0205 16.7142 10.9749 15.9433 10.204C15.1723 9.43309 14.1268 9 13.0365 9ZM13.0365 15.1661C12.63 15.1661 12.2326 15.0456 11.8946 14.8197C11.5566 14.5939 11.2932 14.2729 11.1376 13.8973C10.982 13.5217 10.9413 13.1085 11.0206 12.7098C11.1 12.3111 11.2957 11.9448 11.5832 11.6574C11.8706 11.3699 12.2368 11.1742 12.6355 11.0949C13.0342 11.0156 13.4475 11.0563 13.8231 11.2118C14.1986 11.3674 14.5197 11.6308 14.7455 11.9688C14.9713 12.3068 15.0919 12.7042 15.0919 13.1107C15.0919 13.6559 14.8753 14.1786 14.4899 14.5641C14.1044 14.9496 13.5816 15.1661 13.0365 15.1661Z" fill="#828282"/>
</svg>






